<svg id="visual" viewBox="0 0 1920 1080" width="1920" height="1080" xmlns="http://www.w3.org/2000/svg" xmlns:xlink="http://www.w3.org/1999/xlink" version="1.1"><rect x="0" y="0" width="1920" height="1080" fill="#ff8400"></rect><defs><linearGradient id="grad1_0" x1="43.8%" y1="0%" x2="100%" y2="100%"><stop offset="14.444444444444446%" stop-color="#fbae3c" stop-opacity="1"></stop><stop offset="85.55555555555554%" stop-color="#fbae3c" stop-opacity="1"></stop></linearGradient></defs><defs><linearGradient id="grad1_1" x1="43.8%" y1="0%" x2="100%" y2="100%"><stop offset="14.444444444444446%" stop-color="#fbae3c" stop-opacity="1"></stop><stop offset="85.55555555555554%" stop-color="#fd9a22" stop-opacity="1"></stop></linearGradient></defs><defs><linearGradient id="grad1_2" x1="43.8%" y1="0%" x2="100%" y2="100%"><stop offset="14.444444444444446%" stop-color="#ff8400" stop-opacity="1"></stop><stop offset="85.55555555555554%" stop-color="#fd9a22" stop-opacity="1"></stop></linearGradient></defs><defs><linearGradient id="grad2_0" x1="0%" y1="0%" x2="56.3%" y2="100%"><stop offset="14.444444444444446%" stop-color="#fbae3c" stop-opacity="1"></stop><stop offset="85.55555555555554%" stop-color="#fbae3c" stop-opacity="1"></stop></linearGradient></defs><defs><linearGradient id="grad2_1" x1="0%" y1="0%" x2="56.3%" y2="100%"><stop offset="14.444444444444446%" stop-color="#fd9a22" stop-opacity="1"></stop><stop offset="85.55555555555554%" stop-color="#fbae3c" stop-opacity="1"></stop></linearGradient></defs><defs><linearGradient id="grad2_2" x1="0%" y1="0%" x2="56.3%" y2="100%"><stop offset="14.444444444444446%" stop-color="#fd9a22" stop-opacity="1"></stop><stop offset="85.55555555555554%" stop-color="#ff8400" stop-opacity="1"></stop></linearGradient></defs><g transform="translate(1920, 0)"><path d="M0 972C-112.4 900.1 -224.8 828.2 -316.1 763.1C-407.4 698.1 -477.7 639.9 -582.7 582.7C-687.6 525.4 -827.3 468.9 -898 372C-968.7 275 -970.3 137.5 -972 0L0 0Z" fill="#fe8f13"></path><path d="M0 648C-74.9 600.1 -149.8 552.1 -210.7 508.7C-271.6 465.4 -318.5 426.6 -388.4 388.4C-458.4 350.2 -551.6 312.6 -598.7 248C-645.8 183.3 -646.9 91.7 -648 0L0 0Z" fill="#fca42f"></path><path d="M0 324C-37.5 300 -74.9 276.1 -105.4 254.4C-135.8 232.7 -159.2 213.3 -194.2 194.2C-229.2 175.1 -275.8 156.3 -299.3 124C-322.9 91.7 -323.4 45.8 -324 0L0 0Z" fill="#fbae3c"></path></g><g transform="translate(0, 1080)"><path d="M0 -972C98.8 -895.5 197.5 -819 325.3 -785.3C453 -751.6 609.8 -760.6 687.3 -687.3C764.8 -614 763.1 -458.5 797.3 -330.3C831.5 -202 901.8 -101 972 0L0 0Z" fill="#fe8f13"></path><path d="M0 -648C65.8 -597 131.7 -546 216.9 -523.5C302 -501 406.5 -507 458.2 -458.2C509.9 -409.4 508.7 -305.7 531.5 -220.2C554.4 -134.7 601.2 -67.3 648 0L0 0Z" fill="#fca42f"></path><path d="M0 -324C32.9 -298.5 65.8 -273 108.4 -261.8C151 -250.5 203.3 -253.5 229.1 -229.1C254.9 -204.7 254.4 -152.8 265.8 -110.1C277.2 -67.3 300.6 -33.7 324 0L0 0Z" fill="#fbae3c"></path></g></svg>